<svg version="1.1" id="Layer_1" xmlns="http://www.w3.org/2000/svg" xmlns:xlink="http://www.w3.org/1999/xlink" x="0px" y="0px"
	 width="100%" viewBox="0 0 100 80" enable-background="new 0 0 100 80" xml:space="preserve">
<path fill="#000000" opacity="1.000000" stroke="none" 
	d="
M67.000000,81.000000 
	C44.666672,81.000000 22.833342,81.000000 1.000009,81.000000 
	C1.000006,54.333344 1.000006,27.666683 1.000003,1.000020 
	C34.333317,1.000013 67.666634,1.000013 100.999969,1.000006 
	C100.999977,27.666647 100.999977,54.333294 100.999985,80.999969 
	C89.833336,81.000000 78.666664,81.000000 67.000000,81.000000 
M25.468840,13.039237 
	C24.827606,13.964263 24.365698,15.122016 23.516119,15.776648 
	C17.890226,20.111593 17.256882,24.134672 21.360888,29.936436 
	C21.822180,30.588556 22.007748,31.458548 22.230415,32.252945 
	C23.730320,37.604023 23.178663,43.760662 29.469246,47.081635 
	C30.960150,47.868721 31.333494,51.387299 31.488432,53.698517 
	C31.532280,54.352585 28.579176,56.139832 27.693895,55.765900 
	C23.381277,53.944294 21.002317,54.751289 18.986038,59.267735 
	C17.243576,63.170830 18.342722,70.390427 22.193144,70.360245 
	C27.644341,70.317520 31.898058,71.957680 36.084911,74.901108 
	C36.649239,75.297844 37.725502,75.086555 38.543274,74.984695 
	C52.145874,73.290596 65.792183,71.866531 79.324249,69.722649 
	C85.685143,68.714890 87.033875,62.084091 83.543312,58.552727 
	C84.092705,52.338520 84.905937,47.219025 84.894073,42.101440 
	C84.882721,37.202984 79.399376,31.092117 75.965614,32.161266 
	C70.905190,33.736897 70.730568,31.258286 70.995857,27.636477 
	C71.257141,24.069332 69.984818,21.499969 66.019127,22.091391 
	C62.594028,22.602192 60.820591,24.716831 61.758259,28.587948 
	C62.064854,29.853716 61.352657,31.366255 61.106384,32.765938 
	C59.999748,30.118530 60.317539,27.553007 59.902954,25.111860 
	C59.547398,23.018293 58.885155,20.461388 57.421555,19.177687 
	C54.280411,16.422636 50.563240,14.312644 47.023609,12.028913 
	C45.439861,11.007096 43.344795,10.545169 42.131077,9.229958 
	C39.446316,6.320698 36.537979,6.348885 33.449966,7.936225 
	C30.866959,9.263972 28.476583,10.966461 25.468840,13.039237 
z"/>
<path fill="#E4C590" opacity="1.000000" stroke="none" 
	d="
M25.734873,12.771122 
	C28.476583,10.966461 30.866959,9.263972 33.449966,7.936225 
	C36.537979,6.348885 39.446316,6.320698 42.131077,9.229958 
	C43.344795,10.545169 45.439861,11.007096 47.023609,12.028913 
	C50.563240,14.312644 54.280411,16.422636 57.421555,19.177687 
	C58.885155,20.461388 59.547398,23.018293 59.902954,25.111860 
	C60.317539,27.553007 59.999748,30.118530 61.106384,32.765938 
	C61.352657,31.366255 62.064854,29.853716 61.758259,28.587948 
	C60.820591,24.716831 62.594028,22.602192 66.019127,22.091391 
	C69.984818,21.499969 71.257141,24.069332 70.995857,27.636477 
	C70.730568,31.258286 70.905190,33.736897 75.965614,32.161266 
	C79.399376,31.092117 84.882721,37.202984 84.894073,42.101440 
	C84.905937,47.219025 84.092705,52.338520 83.543312,58.552727 
	C87.033875,62.084091 85.685143,68.714890 79.324249,69.722649 
	C65.792183,71.866531 52.145874,73.290596 38.543274,74.984695 
	C37.725502,75.086555 36.649239,75.297844 36.084911,74.901108 
	C31.898058,71.957680 27.644341,70.317520 22.193144,70.360245 
	C18.342722,70.390427 17.243576,63.170830 18.986038,59.267735 
	C21.002317,54.751289 23.381277,53.944294 27.693895,55.765900 
	C28.579176,56.139832 31.532280,54.352585 31.488432,53.698517 
	C31.333494,51.387299 30.960150,47.868721 29.469246,47.081635 
	C23.178663,43.760662 23.730320,37.604023 22.230415,32.252945 
	C22.007748,31.458548 21.822180,30.588556 21.360888,29.936436 
	C17.256882,24.134672 17.890226,20.111593 23.516119,15.776648 
	C24.365698,15.122016 24.827606,13.964263 25.734873,12.771122 
M76.858788,35.364758 
	C76.341797,35.260212 75.824814,35.155666 75.307823,35.051121 
	C75.059525,35.367374 74.811226,35.683632 74.562927,35.999886 
	C75.130699,36.209900 75.698463,36.419910 76.752533,37.224785 
	C77.669472,43.388451 78.586411,49.552120 79.409340,55.083874 
	C84.265602,49.622112 83.482719,40.155704 76.858788,35.364758 
M58.695141,56.266232 
	C52.068508,55.510986 45.457634,54.497314 38.809669,54.091888 
	C34.421707,53.824295 31.399790,56.962967 31.002428,61.159481 
	C30.527447,66.175751 33.294411,71.931999 37.141758,71.771599 
	C44.429096,71.467789 51.665695,69.946945 59.819416,68.992149 
	C66.034477,68.035774 72.277252,67.220627 78.442604,66.010872 
	C79.769516,65.750511 80.816910,64.065598 81.993057,63.036877 
	C80.762222,61.736168 79.680824,59.521366 78.274925,59.291523 
	C71.874321,58.245144 65.382454,57.757103 58.695141,56.266232 
M34.535206,25.069487 
	C33.694225,26.230936 31.949427,27.604034 32.163548,28.518408 
	C33.289112,33.324966 34.886566,38.022919 36.376965,42.740639 
	C36.699905,43.762882 37.253555,44.712578 37.705048,45.693794 
	C38.343262,47.080784 38.662395,49.282509 39.690174,49.688965 
	C42.137760,50.656906 44.921001,50.776104 47.192013,51.172428 
	C47.361794,45.693806 47.464031,40.507050 39.977409,41.956955 
	C40.094582,40.348194 40.174942,39.244904 40.257996,38.104588 
	C42.597633,38.626320 44.710297,39.097439 46.822960,39.568554 
	C47.097809,39.177654 47.372662,38.786751 47.647511,38.395851 
	C45.506031,36.599415 43.493385,34.608013 41.176521,33.076981 
	C39.699718,32.101078 37.772125,31.807354 36.046654,31.207754 
	C37.968479,30.794508 39.892082,30.389179 41.809948,29.958307 
	C42.058311,29.902510 42.277027,29.714762 42.509068,29.588358 
	C41.615990,27.503025 40.740643,25.459089 39.865295,23.415154 
	C40.487247,23.053064 41.109200,22.690975 41.731155,22.328886 
	C43.449139,24.965570 45.167126,27.602253 46.610161,29.816959 
	C48.212616,28.248831 50.075768,26.425592 51.938915,24.602356 
	C52.282089,24.956247 52.625263,25.310137 52.968437,25.664026 
	C51.411407,29.123487 49.854378,32.582951 48.297344,36.042412 
	C48.665848,36.207924 49.034348,36.373436 49.402847,36.538948 
	C51.895054,34.650898 54.387264,32.762852 56.879471,30.874802 
	C56.000072,29.416288 56.003380,28.044132 56.522717,26.907820 
	C60.012512,19.272085 49.716412,22.707056 49.288517,18.017002 
	C49.246376,17.555113 45.873539,16.553219 44.958496,17.165255 
	C41.536480,19.454109 38.493778,22.310062 34.535206,25.069487 
M32.987400,22.515287 
	C36.165852,19.736425 39.344303,16.957563 42.456329,14.236772 
	C42.290310,14.169385 41.591022,14.111101 41.429550,13.785830 
	C39.350098,9.596964 37.159046,8.742973 33.080303,12.083613 
	C30.883257,13.883077 28.006012,14.591640 26.618326,17.655119 
	C25.582207,19.942482 22.354948,21.779634 22.336370,23.837429 
	C22.316668,26.020016 24.934204,28.226412 26.399996,30.422409 
	C25.968882,32.426125 26.306414,34.351967 26.779951,36.243774 
	C27.082573,37.452763 27.963957,38.622448 27.929834,39.790592 
	C27.822527,43.463875 29.743130,44.057915 32.769615,43.687584 
	C32.122925,41.103165 31.982916,38.557961 30.884697,36.532242 
	C27.763077,30.774267 27.974417,27.540182 32.987400,22.515287 
M66.003738,44.963665 
	C66.002487,46.289082 66.172386,47.641315 65.969627,48.935150 
	C65.195900,53.872269 67.603165,55.451740 72.105927,55.010315 
	C72.901093,54.932365 73.710449,54.999252 74.572083,54.999252 
	C76.863556,48.545067 76.775475,42.718540 73.445503,38.253651 
	C70.698738,40.416965 68.366150,42.254078 66.003738,44.963665 
M59.270222,52.998608 
	C60.460125,53.125118 61.650032,53.251625 63.037247,53.399109 
	C62.553459,48.098850 64.849251,42.383614 59.220222,38.540131 
	C56.700359,43.239624 55.607147,47.991505 59.270222,52.998608 
M51.000099,48.352867 
	C51.452686,49.555622 51.905270,50.758373 52.357849,51.961128 
	C52.905121,50.852314 53.709087,49.797184 53.954182,48.625179 
	C54.896580,44.118828 55.659969,39.575039 56.439392,35.322033 
	C52.527405,36.003784 50.276829,39.488441 51.000099,48.352867 
M66.231636,25.084448 
	C65.901421,28.289946 65.529297,31.491938 65.260490,34.702576 
	C65.144157,36.092072 65.240982,37.499409 65.240982,38.768524 
	C66.137497,38.768524 67.236740,38.768524 67.494255,38.768524 
	C67.494255,36.365486 67.561264,34.190453 67.475410,32.021473 
	C67.389511,29.851397 67.150826,27.687368 66.231636,25.084448 
z"/>
<path fill="#000000" opacity="1.000000" stroke="none" 
	d="
M34.922020,25.011414 
	C38.493778,22.310062 41.536480,19.454109 44.958496,17.165255 
	C45.873539,16.553219 49.246376,17.555113 49.288517,18.017002 
	C49.716412,22.707056 60.012512,19.272085 56.522717,26.907820 
	C56.003380,28.044132 56.000072,29.416288 56.879471,30.874802 
	C54.387264,32.762852 51.895054,34.650898 49.402847,36.538948 
	C49.034348,36.373436 48.665848,36.207924 48.297344,36.042412 
	C49.854378,32.582951 51.411407,29.123487 52.968437,25.664026 
	C52.625263,25.310137 52.282089,24.956247 51.938915,24.602356 
	C50.075768,26.425592 48.212616,28.248831 46.610161,29.816959 
	C45.167126,27.602253 43.449139,24.965570 41.731155,22.328886 
	C41.109200,22.690975 40.487247,23.053064 39.865295,23.415154 
	C40.740643,25.459089 41.615990,27.503025 42.509068,29.588358 
	C42.277027,29.714762 42.058311,29.902510 41.809948,29.958307 
	C39.892082,30.389179 37.968479,30.794508 36.046654,31.207754 
	C37.772125,31.807354 39.699718,32.101078 41.176521,33.076981 
	C43.493385,34.608013 45.506031,36.599415 47.647511,38.395851 
	C47.372662,38.786751 47.097809,39.177654 46.822960,39.568554 
	C44.710297,39.097439 42.597633,38.626320 40.257996,38.104588 
	C40.174942,39.244904 40.094582,40.348194 39.977409,41.956955 
	C47.464031,40.507050 47.361794,45.693806 47.192013,51.172428 
	C44.921001,50.776104 42.137760,50.656906 39.690174,49.688965 
	C38.662395,49.282509 38.343262,47.080784 37.705048,45.693794 
	C37.253555,44.712578 36.699905,43.762882 36.376965,42.740639 
	C34.886566,38.022919 33.289112,33.324966 32.163548,28.518408 
	C31.949427,27.604034 33.694225,26.230936 34.922020,25.011414 
z"/>
<path fill="#000000" opacity="1.000000" stroke="none" 
	d="
M58.923374,68.931732 
	C51.665695,69.946945 44.429096,71.467789 37.141758,71.771599 
	C33.294411,71.931999 30.527447,66.175751 31.002428,61.159481 
	C31.399790,56.962967 34.421707,53.824295 38.809669,54.091888 
	C45.457634,54.497314 52.068508,55.510986 58.846024,56.632816 
	C58.996902,56.999401 59.069736,56.929810 58.625950,56.962105 
	C57.566887,57.113018 56.421467,57.205017 56.413982,57.354149 
	C56.234100,60.936848 56.091820,64.528831 56.226784,68.108429 
	C56.240196,68.464241 58.078438,68.751251 59.033310,69.035400 
	C58.996883,69.000618 58.923374,68.931732 58.923374,68.931732 
M41.388065,68.886482 
	C43.261257,59.789871 42.532829,57.114822 38.002151,57.574490 
	C38.002151,60.502979 37.809628,63.489174 38.115067,66.423531 
	C38.211399,67.349037 39.641468,68.135712 41.388065,68.886482 
M47.007912,58.804146 
	C47.005463,61.127903 47.137978,63.461502 46.969318,65.773132 
	C46.708557,69.347168 48.255447,69.591316 50.769909,68.488960 
	C50.769909,64.539993 50.769909,60.927971 50.769909,56.682152 
	C49.279785,57.161732 48.175953,57.516991 47.007912,58.804146 
z"/>
<path fill="#000000" opacity="1.000000" stroke="none" 
	d="
M32.718143,22.775517 
	C27.974417,27.540182 27.763077,30.774267 30.884697,36.532242 
	C31.982916,38.557961 32.122925,41.103165 32.769615,43.687584 
	C29.743130,44.057915 27.822527,43.463875 27.929834,39.790592 
	C27.963957,38.622448 27.082573,37.452763 26.779951,36.243774 
	C26.306414,34.351967 25.968882,32.426125 26.399996,30.422409 
	C24.934204,28.226412 22.316668,26.020016 22.336370,23.837429 
	C22.354948,21.779634 25.582207,19.942482 26.618326,17.655119 
	C28.006012,14.591640 30.883257,13.883077 33.080303,12.083613 
	C37.159046,8.742973 39.350098,9.596964 41.429550,13.785830 
	C41.591022,14.111101 42.290310,14.169385 42.456329,14.236772 
	C39.344303,16.957563 36.165852,19.736425 32.718143,22.775517 
z"/>
<path fill="#000000" opacity="1.000000" stroke="none" 
	d="
M58.960152,57.033840 
	C65.382454,57.757103 71.874321,58.245144 78.274925,59.291523 
	C79.680824,59.521366 80.762222,61.736168 81.993057,63.036880 
	C80.816910,64.065598 79.769516,65.750511 78.442604,66.010872 
	C72.277252,67.220627 66.034477,68.035774 59.371395,68.961945 
	C58.923374,68.931732 58.996883,69.000618 59.002438,68.570099 
	C59.028572,64.402985 59.049156,60.666397 59.069740,56.929810 
	C59.069736,56.929810 58.996902,56.999401 58.960152,57.033840 
z"/>
<path fill="#000000" opacity="1.000000" stroke="none" 
	d="
M66.018654,44.527428 
	C68.366150,42.254078 70.698738,40.416965 73.445503,38.253651 
	C76.775475,42.718540 76.863556,48.545067 74.572083,54.999252 
	C73.710449,54.999252 72.901093,54.932365 72.105927,55.010315 
	C67.603165,55.451740 65.195900,53.872269 65.969627,48.935150 
	C66.172386,47.641315 66.002487,46.289082 66.018654,44.527428 
z"/>
<path fill="#000000" opacity="1.000000" stroke="none" 
	d="
M58.824764,52.991722 
	C55.607147,47.991505 56.700359,43.239624 59.220222,38.540131 
	C64.849251,42.383614 62.553459,48.098850 63.037247,53.399109 
	C61.650032,53.251625 60.460125,53.125118 58.824764,52.991722 
z"/>
<path fill="#000000" opacity="1.000000" stroke="none" 
	d="
M77.071884,35.917137 
	C83.482719,40.155704 84.265602,49.622112 79.409340,55.083874 
	C78.586411,49.552120 77.669472,43.388451 76.713684,36.752434 
	C76.807198,36.159096 76.939545,36.038116 77.071884,35.917137 
z"/>
<path fill="#000000" opacity="1.000000" stroke="none" 
	d="
M51.000053,47.893002 
	C50.276829,39.488441 52.527405,36.003784 56.439392,35.322033 
	C55.659969,39.575039 54.896580,44.118828 53.954182,48.625179 
	C53.709087,49.797184 52.905121,50.852314 52.357849,51.961128 
	C51.905270,50.758373 51.452686,49.555622 51.000053,47.893002 
z"/>
<path fill="#000000" opacity="1.000000" stroke="none" 
	d="
M66.605377,25.302570 
	C67.150826,27.687368 67.389511,29.851397 67.475410,32.021473 
	C67.561264,34.190453 67.494255,36.365486 67.494255,38.768524 
	C67.236740,38.768524 66.137497,38.768524 65.240982,38.768524 
	C65.240982,37.499409 65.144157,36.092072 65.260490,34.702576 
	C65.529297,31.491938 65.901421,28.289946 66.605377,25.302570 
z"/>
<path fill="#000000" opacity="1.000000" stroke="none" 
	d="
M76.470535,36.455002 
	C75.698463,36.419910 75.130699,36.209900 74.562927,35.999886 
	C74.811226,35.683632 75.059525,35.367374 75.307823,35.051121 
	C75.824814,35.155666 76.341797,35.260212 76.965332,35.640945 
	C76.939545,36.038116 76.807198,36.159096 76.470535,36.455002 
z"/>
<path fill="#E4C590" opacity="1.000000" stroke="none" 
	d="
M40.924595,68.936203 
	C39.641468,68.135712 38.211399,67.349037 38.115067,66.423531 
	C37.809628,63.489174 38.002151,60.502979 38.002151,57.574490 
	C42.532829,57.114822 43.261257,59.789871 40.924595,68.936203 
z"/>
<path fill="#E4C590" opacity="1.000000" stroke="none" 
	d="
M47.040016,58.338196 
	C48.175953,57.516991 49.279785,57.161732 50.769909,56.682152 
	C50.769909,60.927971 50.769909,64.539993 50.769909,68.488960 
	C48.255447,69.591316 46.708557,69.347168 46.969318,65.773132 
	C47.137978,63.461502 47.005463,61.127903 47.040016,58.338196 
z"/>
<path fill="#E4C590" opacity="1.000000" stroke="none" 
	d="
M58.625954,56.962105 
	C59.049156,60.666397 59.028572,64.402985 59.038864,68.604881 
	C58.078438,68.751251 56.240196,68.464241 56.226784,68.108429 
	C56.091820,64.528831 56.234100,60.936848 56.413982,57.354149 
	C56.421467,57.205017 57.566887,57.113018 58.625954,56.962105 
z"/>
</svg>